<?xml version="1.0" encoding="UTF-8"?>
<svg width="192" height="192" viewBox="0 0 192 192" fill="none" xmlns="http://www.w3.org/2000/svg">
  <circle cx="96" cy="96" r="88" fill="#1a237e"/>
  <path d="M96 48C71.7 48 52 67.7 52 92C52 116.3 71.7 136 96 136C120.3 136 140 116.3 140 92C140 67.7 120.3 48 96 48ZM96 124C77.8 124 64 110.2 64 92C64 73.8 77.8 60 96 60C114.2 60 128 73.8 128 92C128 110.2 114.2 124 96 124Z" fill="white"/>
  <path d="M96 72C83.9 72 74 81.9 74 94C74 106.1 83.9 116 96 116C108.1 116 118 106.1 118 94C118 81.9 108.1 72 96 72ZM96 108C89.4 108 84 102.6 84 96C84 89.4 89.4 84 96 84C102.6 84 108 89.4 108 96C108 102.6 102.6 108 96 108Z" fill="white"/>
</svg> 